<?xml version="1.0" encoding="UTF-8"?>
<svg id="Camada_1" data-name="Camada 1" xmlns="http://www.w3.org/2000/svg" viewBox="0 0 1366 768">
  <defs>
    <style>
      .cls-1 {
        fill: #8a4615;
      }

      .cls-2 {
        fill: #7f2100;
      }

      .cls-3 {
        fill: #dea401;
      }

      .cls-4 {
        fill: #8b4514;
      }

      .cls-5 {
        fill: #d8a065;
      }
    </style>
  </defs>
  <g>
    <path class="cls-5" d="M407.66,150.65l-51.48,236.77c8.15,4.97,16.3,6.63,24.45,5.82,51.04-5.08,82.36-106.47,82.36-189.88,0-56.16-25.31-75.52-62.63-71.8-63.91,6.36-112.38,48.76-112.38,111.53,0,21.06,5.58,23.81,6.01,27.48-28.31,2.82-45.9-5.75-45.9-33.83,0-56.57,72.49-116.23,159.57-124.89,83.22-8.28,114.53,44.34,114.53,107.52,0,94.97-55.33,201.64-118.82,207.96-16.3,1.62-33.89-3.23-52.33-16.68l-3.43,16.86-61.77,6.15,58.34-268.42,63.49-14.58Z"/>
    <path class="cls-5" d="M696.35,248.67c1.71,.65,3.43,.48,4.72,.36,19.73-1.96,47.61-17.13,66.06-31.35l3.86,10.77c-16.3,18.55-44.61,33.76-75.92,41.83-6.86,77.07-49.76,129.24-102.52,134.49-39.89,3.97-68.63-11.34-68.63-58.41s29.17-149.49,117.53-158.28c36.89-3.67,54.91,17.24,54.91,60.6Zm-36.89,26.38c-9.01-1.17-11.58-7.93-11.58-16.19,0-11.56,5.58-19.55,13.3-23.62-.86-17.26-5.15-23.44-16.3-22.33-30.46,3.03-57.05,81.24-57.05,121.71,0,27.25,5.58,32.89,21.88,31.27,21.02-2.09,42.9-41.43,49.76-90.84Z"/>
    <path class="cls-5" d="M843.04,206.82c0-10.32-3.86-16.55-12.01-15.74-27.03,2.69-54.91,81.03-54.91,126.86,0,28.08,10.29,33.66,30.88,31.61,33.89-3.37,54.48-23.59,75.92-49.26l14.58-1.45c-24.45,40.42-60.91,82.45-117.96,88.13-40.32,4.01-66.92-12.33-66.92-58.99s28.31-149.81,115.39-158.48c38.18-3.8,47.61,14.25,47.61,33.25,0,20.23-10.29,31.17-22.73,32.41-4.72,.47-9.87-.67-15.01-3.46,3.43-9.43,5.15-17.85,5.15-24.87Z"/>
    <path class="cls-5" d="M967,329.08c16.3-1.62,36.89-13.99,50.62-26.92-9.01,47.97-39.89,65.08-74.21,68.5-39.89,3.97-66.49-12.38-66.49-59.03s27.88-149.77,115.82-158.53c38.18-3.8,47.19,14.3,47.19,34.94,0,47.9-47.19,88.93-98.66,96.95-.43,4.17-.86,8.76-.86,12.47,0,26.01,11.58,33.12,26.6,31.62Zm29.17-154.44c-21.45,2.14-42.9,50.1-51.9,90.23,33.46-4.98,62.63-39.68,62.63-74.36,0-10.32-2.57-16.67-10.72-15.86Z"/>
  </g>
  <g>
    <path class="cls-4" d="M458.65,495.88c-4.98,1.03-9.14,.53-12.74-2.11,7.48-5.14,12.46-14.51,12.46-21.95,0-7.89-5.26-14.02-20.49-10.88-15.23,3.13-25.47,12.23-25.47,25.76,0,33.13,62.3,24.81,62.3,73.5,0,37.87-37.65,64.1-77.8,72.37-31.56,6.5-58.7,.81-58.7-26.68,0-24.34,21.32-41.35,40.7-45.34,9.69-1.99,23.53-1.69,24.36,9.86-14.95,3.08-32.39,12.3-32.39,27.86,0,11.27,8.86,19.81,26.58,16.17,18.55-3.82,32.12-17.66,32.12-36.59,0-38.54-56.76-40.61-56.76-73.74,0-23.44,28.24-46.16,63.96-53.51,13.01-2.68,44.58-6.92,44.58,17.87,0,13.07-8.86,24.59-22.7,27.44Z"/>
    <path class="cls-4" d="M621.44,468.91l-19.93,80.74c-.83,3.1-1.11,5.41-1.11,7.44,0,6.31,3.6,8.95,11.35,7.35,10.8-2.22,18.27-13.68,22.43-25.8l11.63-2.39c-15.78,39.99-40.7,50.08-55.65,53.15-15.51,3.19-25.47-1.97-27.13-15.15-8.58,12.14-21.6,25.18-41.25,29.23-18.83,3.88-36.83-1.89-36.83-28.71,0-30.43,22.98-83.62,71.16-93.54,15.78-3.25,22.43,.34,22.43,6.88v1.58l3.05-12.57,39.87-8.21Zm-95.52,94.27c0,17.36,8.86,15.76,13.84,14.73,8.03-1.65,19.66-10.81,22.98-24.57l13.29-53.68c0-2.7-2.49-8.05-11.35-6.23-23.53,4.84-38.76,48.55-38.76,69.74Z"/>
    <path class="cls-4" d="M663.79,419.62l40.98-12.94-13.29,53.45c11.35-7.97,17.17-9.85,22.7-10.99,19.38-3.99,32.67,3.19,32.67,31.82,0,26.37-17.17,79.72-75.86,91.8-25.47,5.24-38.76-2.84-38.76-20.87,0-3.83,.55-8.23,1.94-13.25l29.63-119.02Zm40.42,47.58c-3.88,.8-13.29,3.86-16.34,7.42l-15.23,60.39c-.55,1.92-.83,3.78-.83,5.35,0,6.54,4.71,9.4,14.67,7.35,18-3.7,32.39-38.23,32.39-61.89,0-11.04-4.71-20.67-14.67-18.62Z"/>
    <path class="cls-4" d="M864.52,452.9c1.11,.22,2.21,0,3.05-.18,12.74-2.62,30.73-13.09,42.64-22.3l2.49,5.57c-10.52,11.41-28.79,21.93-49.01,28.79-4.43,42.61-32.12,74.46-66.17,81.47-25.75,5.3-44.3-.8-44.3-26.49s18.83-83.89,75.87-95.63c23.81-4.9,35.44,5.1,35.44,28.77Zm-23.81,17.3c-5.81,.07-7.48-3.42-7.48-7.93,0-6.31,3.6-11.11,8.58-13.94-.55-9.35-3.32-12.39-10.52-10.91-19.66,4.05-36.83,48.83-36.83,70.92,0,14.88,3.6,17.52,14.12,15.35,13.57-2.79,27.69-25.99,32.12-53.49Z"/>
    <path class="cls-4" d="M937.33,403.88l-3.6,14.72c9.69-8.76,20.21-18.14,33.5-20.87,12.46-2.56,19.1,4.41,19.1,12.97,0,7.89-6.37,17.76-19.93,20.56-15.51,3.19-7.75-13.28-16.06-11.57-8.3,1.71-13.29,6.11-20.21,12.73l-22.15,90.21-39.87,8.21,29.35-118.74,39.87-8.21Z"/>
  </g>
  <g>
    <path class="cls-3" d="M1063.98,363.59s.97-3.36,2.43-8.39c.61-2.53,1.32-5.49,2.07-8.65,.38-1.58,.77-3.21,1.17-4.87,.31-1.67,.62-3.36,.94-5.06,.6-3.39,1.34-6.77,1.81-9.94,.42-3.17,.81-6.14,1.14-8.68,.35-2.54,.65-4.65,.7-6.13,.11-1.48,.17-2.32,.17-2.32l-.53-.04s-.06,.84-.17,2.32c-.05,1.47-.36,3.58-.7,6.12-.33,2.53-.72,5.49-1.14,8.66-.47,3.17-1.21,6.54-1.81,9.92-.31,1.69-.63,3.38-.93,5.05-.4,1.66-.79,3.29-1.17,4.87-.76,3.16-1.46,6.11-2.07,8.64-1.46,5.03-2.43,8.38-2.43,8.38l.52,.14Z"/>
    <path class="cls-3" d="M1137.04,386.23s1.36-4.14,3.27-10.41c.85-3.18,1.84-6.89,2.9-10.86,.52-1.99,1.06-4.05,1.61-6.14,.46-2.12,.92-4.28,1.38-6.44,.89-4.33,1.9-8.62,2.61-12.72,.65-4.12,1.26-7.96,1.78-11.25,.52-3.29,.96-6.04,1.1-8,.2-1.95,.31-3.06,.31-3.06l-.53-.07s-.11,1.11-.31,3.06c-.15,1.96-.58,4.7-1.1,7.99-.52,3.29-1.13,7.12-1.77,11.23-.71,4.09-1.72,8.38-2.61,12.7-.46,2.16-.92,4.31-1.38,6.43-.55,2.09-1.09,4.14-1.61,6.13-1.06,3.97-2.05,7.67-2.9,10.85-.91,3.15-1.79,5.72-2.35,7.54-.58,1.82-.91,2.85-.91,2.85l.25,.09s-.86,1.28-2.27,2.95c-1.42,1.66-3.3,3.73-5.6,5.2-3.75,2.49-11.67,3.82-20.14,6.76-4.17,1.5-8.79,3.27-12.99,5.87-4.26,2.58-8.08,5.99-11.65,10.44l1.58-3.58-1.59,3.32c1.18-5.45,.57-10.65-.66-15.28-1.3-4.66-3.24-8.76-5.68-12.47-4.76-7.38-10.26-12.74-11.8-16.38-.88-2.18-1.54-4.57-1.86-6.38-.34-1.81-.41-3.08-.41-3.08-1.25,2.53-2.18,4.97-3.16,7.25-.97,2.29-1.76,4.47-2.38,6.57-.62,2.1-1.08,4.12-1.4,6.08-.39,1.94-.67,3.8-.81,5.61-.28,3.62-.06,7.04,.49,10.34,.46,3.27,1.21,6.41,2.18,9.52,.96,3.11,2.11,6.19,3.27,9.31,1.15,3.12,2.19,6.22,3.16,9.47,1.91,6.49,3.29,13.51,2.34,21.42,0,0-.71,1.22-1.95,3.36-.62,1.07-1.37,2.37-2.24,3.86-.92,1.46-1.95,3.1-3.08,4.9-4.44,7.22-10.71,16.64-17.32,25.8-6.61,9.17-13.64,18-19.02,24.53-5.5,6.43-9.16,10.72-9.16,10.72l2.99,2.57s3.56-4.43,8.89-11.07c5.22-6.73,12.02-15.82,18.37-25.22,6.36-9.39,12.36-19.02,16.59-26.39,1.08-1.83,2.06-3.51,2.94-5,.82-1.52,1.54-2.84,2.12-3.93,1.18-2.18,1.85-3.43,1.85-3.43,6.43-4.9,12.82-8.02,19.36-10.63,3.31-1.26,6.57-2.51,9.82-3.74,3.2-1.29,6.38-2.65,9.52-4.26,3.13-1.62,6.24-3.48,9.21-5.82,2.88-2.38,5.67-5.23,8.3-8.71,1.31-1.74,2.6-3.64,3.81-5.73,1.15-2.13,2.24-4.44,3.27-6.96,1.03-2.52,2.01-5.24,2.91-8.18,.91-2.94,1.53-6.2,2.17-9.64l.25,.09Z"/>
    <path class="cls-3" d="M1088.49,407.27c3.53-3.89,8.52-6.41,13.75-9.08,5.28-2.65,11.18-5.28,17.01-9.16,2.81-1.98,5.57-4.28,8.22-7.04,1.32-1.38,2.61-2.88,3.86-4.51,1.27-1.62,2.45-3.4,3.48-5.36,2.11-3.9,3.98-8.41,5.48-13.63,1.3-5.29,2.14-11.33,2.48-18.13,0,0-2.91,5.49-6.93,9.01-1.77,1.55-4.15,3.22-6.87,4.98-2.74,1.75-5.99,3.54-9.23,5.44-6.54,3.79-13.27,7.88-18.71,12.38-.67-2.4-1.49-4.66-2.41-6.8-.98-2.16-2.11-4.21-3.27-6.16-2.33-3.9-4.88-7.42-7.28-10.76-2.34-3.33-4.86-6.52-6.73-9.7-1.9-3.19-3.31-6.39-3.87-9.82-2.09,5.18-3.39,9.85-4.19,14.16-1,4.28-1.39,8.22-1.33,11.9,.06,1.85,.15,3.62,.28,5.33,.16,1.71,.42,3.38,.76,5,.68,3.24,1.69,6.3,2.87,9.25,2.15,5.84,5.08,11.23,7.64,16.58,2.6,5.36,4.46,10.54,4.99,16.12Z"/>
    <path class="cls-3" d="M1077.73,328.97s.42-3.25,1.05-8.13c.16-1.22,.33-2.54,.51-3.93,.2-1.4,.38-2.87,.45-4.39,.22-3.04,.45-6.29,.68-9.53,.35-3.25,.18-6.47,.27-9.5,0-3.02,.15-5.85,.06-8.26-.24-4.8-.4-8-.4-8l-.53,.04s.16,3.19,.4,7.98c.09,2.4-.05,5.22-.06,8.24-.1,3.02,.07,6.23-.27,9.47-.23,3.24-.46,6.47-.68,9.51-.07,1.52-.25,2.99-.45,4.38-.18,1.39-.35,2.71-.51,3.93-.63,4.87-1.04,8.12-1.04,8.12l.53,.08Z"/>
    <path class="cls-3" d="M1143.03,340.41s.18-1.01,.47-2.78c.29-1.77,.7-4.31,1.19-7.35,.24-1.52,.51-3.17,.78-4.91,.29-1.74,.57-3.58,.74-5.52,.4-3.85,.82-7.97,1.25-12.08,.52-4.1,.52-8.28,.75-12.17,.14-3.9,.39-7.53,.38-10.66-.11-6.27-.18-10.46-.18-10.46h-.54s.07,4.17,.18,10.44c.02,3.13-.24,6.75-.38,10.64-.23,3.88-.22,8.06-.74,12.15-.42,4.1-.85,8.21-1.25,12.06-.17,1.93-.45,3.77-.74,5.51-.28,1.74-.54,3.39-.78,4.91-.99,6.07-1.65,10.12-1.65,10.12l.52,.11Z"/>
    <path class="cls-3" d="M1103.14,365.31c2.95-2.58,7.05-4.97,11.64-7.94,2.26-1.5,4.77-3.11,7.09-5.02,2.34-1.91,4.71-4.07,7.01-6.56,2.27-2.5,4.62-5.3,6.55-8.59,1.91-3.29,3.65-7.01,5.12-11.22,1.57-4.18,2.37-8.97,2.95-14.23,.25-2.64,.48-5.4,.46-8.31-.1-2.92-.32-5.97-.68-9.15h.27s.08-2.87,.21-7.17c-.02-4.32-.27-10.1-.44-15.87-.02-2.88-.37-5.77-.61-8.48-.26-2.7-.5-5.23-.71-7.39-.21-2.16-.39-3.97-.52-5.23-.2-1.26-.32-1.97-.32-1.97l-.53,.07s.12,.72,.32,1.97c.12,1.26,.3,3.06,.52,5.22,.21,2.16,.45,4.68,.71,7.38,.25,2.7,.59,5.58,.61,8.46,.17,5.76,.42,11.52,.44,15.84-.12,4.3-.21,7.17-.21,7.17h.27s-1.94,5.88-5.36,9.93c-6.12,6.73-18.37,12.61-27.89,30.89-.86-6.34-2.62-11.25-4.69-15.25-1.01-2-2.24-3.79-3.52-5.43-1.27-1.64-2.58-3.12-3.87-4.52-2.6-2.8-5.16-5.28-7.32-7.97-2.2-2.69-4.25-5.59-5.47-9.22h.27s.07-2.3,.19-5.77c-.03-3.45-.25-8.04-.36-12.64,0-2.31-.29-4.57-.49-6.71-.21-2.13-.4-4.12-.56-5.83-.16-1.71-.29-3.13-.39-4.13-.17-.98-.26-1.54-.26-1.54l-.53,.07s.09,.56,.26,1.54c.09,.99,.22,2.41,.38,4.12,.16,1.7,.35,3.69,.56,5.82,.2,2.13,.5,4.39,.49,6.69,.11,4.58,.33,9.16,.36,12.61-.11,3.46-.19,5.76-.19,5.76h.27c-.53,2.54-.92,4.95-1.18,7.26-.34,2.31-.67,4.53-.81,6.66-.35,4.26-.02,8.18,.18,11.84,.31,3.66,1.01,7.06,1.97,10.27,.94,3.21,1.9,6.19,3.16,9.03,1.23,2.83,2.63,5.5,4.07,8.04,1.47,2.54,2.76,4.9,4.13,7.17,2.67,4.53,5.13,8.6,6.46,12.37Z"/>
    <path class="cls-3" d="M1111.79,323.32c1.27-1.41,2.75-2.79,4.35-4.22,1.55-1.45,3.17-2.97,4.88-4.57,3.39-3.26,7.11-7.04,10.32-11.97,1.51-2.47,2.92-5.23,4.15-8.33,.62-1.55,1.19-3.19,1.7-4.92,.53-1.73,.99-3.56,1.24-5.49,.58-3.87,.87-8.14,.8-12.84,.03-2.35-.3-4.81-.68-7.37-.38-2.56-.87-5.23-1.48-8.01,0,0-1.21,6.05-4.04,10.48-1.64,2.7-4.88,5.78-8.33,9.32-3.49,3.54-7.13,7.53-10.33,12.14-4.85-6.98-10.06-10.59-14.48-14.04-1.12-.86-2.17-1.71-3.22-2.59-1.08-.87-2.12-1.78-3.1-2.76-1.96-1.96-3.68-4.22-5.09-7.13-.12,2.34-.13,4.56-.07,6.66,.06,2.11,.28,4.1,.32,6.03,.2,3.85,.74,7.32,1.53,10.51,.42,1.59,.82,3.12,1.21,4.59,.42,1.47,.9,2.88,1.43,4.23,1.06,2.7,2.31,5.19,3.67,7.52,2.54,4.65,5.43,8.64,8.24,12.32,1.39,1.84,2.76,3.61,3.97,5.34,1.14,1.72,2.17,3.41,2.99,5.1Z"/>
    <path class="cls-3" d="M1088.77,260.97s-.06-.51-.17-1.39c-.14-.88-.19-2.16-.53-3.65-.58-2.99-1.35-6.97-2.12-10.96-.32-2.01-.89-3.95-1.38-5.78-.49-1.83-.95-3.54-1.34-5-.77-2.93-1.29-4.88-1.29-4.88l-.51,.17s.51,1.95,1.28,4.86c.39,1.46,.85,3.16,1.33,4.99,.49,1.83,1.06,3.77,1.37,5.77,.77,3.97,1.54,7.95,2.12,10.93,.34,1.48,.38,2.76,.52,3.64,.11,.88,.17,1.39,.17,1.39l.53-.09Z"/>
    <path class="cls-3" d="M1137.35,255.58s-.05-.62-.13-1.71c-.12-1.08-.12-2.64-.43-4.49-.52-3.71-1.22-8.66-1.92-13.6-.29-2.49-.84-4.93-1.33-7.23-.49-2.3-.94-4.44-1.33-6.28-.79-3.68-1.32-6.13-1.32-6.13l-.53,.1s.53,2.45,1.31,6.12c.39,1.84,.84,3.98,1.33,6.27,.49,2.29,1.04,4.73,1.33,7.21,.7,4.94,1.39,9.87,1.91,13.58,.3,1.85,.31,3.4,.43,4.48,.08,1.08,.13,1.7,.13,1.7l.54-.02Z"/>
    <path class="cls-3" d="M1088.12,226.71c.38,3.99,.93,7.59,1.67,10.87,.35,1.65,.83,3.19,1.18,4.71,.34,1.52,.72,2.97,1.14,4.35,1.68,5.54,4.09,10.08,6.32,14.08,2.35,3.98,5.16,7.31,7.93,10.31,2.62,3.01,5.35,5.65,7.86,8.19,2.34-2.67,4.89-5.61,7.31-9.12,2.28-3.5,4.27-7.58,5.8-12.5,1.65-4.94,2.2-10.68,1.85-17.46-.09-1.7-.23-3.45-.45-5.28-.23-1.82-.7-3.67-1.16-5.61-.96-3.86-2.21-7.97-3.84-12.32l.26-.05s-2-7.17-3.99-14.34c-.25-.9-.5-1.79-.75-2.68-.3-.86-.6-1.72-.89-2.54-.59-1.65-1.14-3.18-1.61-4.5-.95-2.63-1.57-4.39-1.57-4.39l-.51,.16s.63,1.75,1.57,4.38c.47,1.31,1.02,2.85,1.6,4.49,.29,.82,.59,1.67,.89,2.53,.25,.88,.5,1.78,.75,2.67,1.99,7.16,3.98,14.31,3.98,14.31l.27-.05s-.38,6.08-2.58,10.83c-1.19,2.54-3.44,5.69-5.44,9.41-2.15,3.76-3.98,8.07-3.99,13.11-3.85-8.86-7.51-11.52-11.6-13.61-3.97-2.09-7.88-3.74-12.01-9.97l.25-.09s-2.12-5.97-4.23-11.94c-.26-.74-.52-1.49-.78-2.22-.31-.71-.62-1.42-.92-2.09-.6-1.36-1.15-2.62-1.63-3.71-.95-2.17-1.58-3.61-1.58-3.61l-.48,.24s.63,1.44,1.58,3.61c.48,1.08,1.03,2.35,1.63,3.7,.3,.68,.6,1.38,.91,2.09,.26,.73,.52,1.47,.78,2.22,2.11,5.95,4.22,11.91,4.22,11.91l.25-.09Z"/>
    <path class="cls-3" d="M1110.11,240.43c2.32-3.62,3.38-7.2,4.17-10.72,.73-3.51,.92-6.9,.79-10.01-.63-6.14-2.54-11.14-3.95-14.15-.38-.8-.78-1.61-1.2-2.41-.47-.79-.99-1.58-1.51-2.38-1.06-1.6-2.2-3.22-3.39-4.87-1.2-1.64-2.45-3.33-3.74-5.09-.66-.87-1.27-1.77-1.98-2.64-.72-.87-1.46-1.75-2.21-2.65-2.99-3.58-5.94-7.48-8.97-11.71-3.26-4.11-6.44-8.65-9.42-13.84,2.98,5.19,5.31,10.24,7.18,15.03,1.65,4.91,2.66,9.64,3.57,14,.21,1.09,.42,2.16,.62,3.21,.18,1.06,.26,2.14,.38,3.17,.22,2.07,.43,4.06,.64,5.98,.21,1.91,.43,3.73,.7,5.47,.14,.87,.28,1.72,.42,2.55,.1,.85,.21,1.68,.33,2.49,.48,3.05,1.62,7.74,4.4,12.78,1.21,2.58,2.82,5.26,5,7.92,2.12,2.67,5.06,5.28,8.18,7.87Z"/>
  </g>
  <g>
    <path class="cls-3" d="M230.56,392.77s.32,3.64,.79,9.09c.36,2.7,.78,5.84,1.23,9.22,.22,1.68,.45,3.43,.69,5.19,.33,1.74,.66,3.51,.99,5.28,.69,3.53,1.24,7.1,1.98,10.37,.79,3.25,1.52,6.29,2.15,8.89,.61,2.6,1.12,4.78,1.62,6.24,.45,1.48,.71,2.33,.71,2.33l.53-.16s-.26-.84-.71-2.32c-.5-1.46-1-3.63-1.62-6.23-.63-2.6-1.36-5.62-2.15-8.87-.74-3.26-1.28-6.83-1.97-10.35-.33-1.77-.66-3.53-.99-5.27-.23-1.77-.46-3.5-.69-5.18-.45-3.37-.87-6.51-1.23-9.2-.47-5.45-.79-9.08-.79-9.08l-.56,.06Z"/>
    <path class="cls-3" d="M150.83,398.19s.23,4.55,.73,11.38c.37,3.42,.8,7.41,1.26,11.68,.24,2.14,.49,4.35,.74,6.59,.36,2.24,.72,4.52,1.08,6.8,.76,4.55,1.39,9.12,2.24,13.38,.92,4.26,1.77,8.23,2.5,11.64,.73,3.41,1.34,6.25,1.93,8.21,.54,1.97,.85,3.1,.85,3.1l.55-.13s-.31-1.13-.85-3.1c-.59-1.96-1.2-4.8-1.93-8.2-.73-3.4-1.58-7.37-2.5-11.62-.85-4.25-1.48-8.81-2.23-13.36-.36-2.27-.72-4.55-1.08-6.79-.25-2.24-.5-4.45-.74-6.58-.46-4.27-.89-8.25-1.26-11.66-.29-3.41-.41-6.25-.54-8.24-.12-1.99-.19-3.12-.19-3.12h-.28s.36-1.57,1.1-3.72c.76-2.15,1.82-4.88,3.5-7.18,2.72-3.84,9.94-8.11,17.09-14.17,3.5-3.03,7.34-6.5,10.45-10.61,3.18-4.12,5.62-8.88,7.43-14.56l-.19,4.08,.3-3.83c.9,5.75,3.45,10.6,6.39,14.65,3.02,4.05,6.46,7.32,10.23,10.02,7.41,5.4,14.8,8.56,17.67,11.53,1.68,1.8,3.22,3.88,4.21,5.52,1.01,1.64,1.56,2.84,1.56,2.84,.27-2.94,.26-5.66,.35-8.26,.09-2.59,.03-5.02-.15-7.3-.18-2.28-.5-4.43-.92-6.45-.35-2.03-.77-3.95-1.32-5.77-1.09-3.64-2.59-6.89-4.37-9.9-1.68-3.01-3.6-5.79-5.71-8.46-2.11-2.67-4.38-5.24-6.69-7.84-2.29-2.6-4.48-5.23-6.65-8.04-4.3-5.61-8.29-11.94-10.34-20,0,0,.23-1.46,.64-4.01,.2-1.28,.45-2.83,.73-4.6,.35-1.77,.73-3.76,1.16-5.94,1.61-8.71,4.18-20.25,7.18-31.67,2.99-11.42,6.52-22.68,9.31-31.07,2.94-8.34,4.9-13.9,4.9-13.9l-3.88-1.38s-1.8,5.65-4.51,14.13c-2.55,8.53-5.76,19.95-8.42,31.5-2.67,11.55-4.89,23.19-6.24,31.97-.36,2.19-.69,4.2-.99,5.98-.23,1.79-.43,3.35-.59,4.63-.33,2.57-.51,4.04-.51,4.04-4.42,7.2-9.48,12.64-14.87,17.64-2.75,2.47-5.46,4.91-8.16,7.34-2.63,2.46-5.23,4.98-7.68,7.74-2.44,2.76-4.77,5.74-6.79,9.14-1.91,3.41-3.56,7.23-4.81,11.61-.62,2.19-1.17,4.53-1.56,7.02-.32,2.51-.51,5.17-.57,8.01-.06,2.84,.01,5.86,.24,9.06,.22,3.2,.84,6.62,1.51,10.21h-.28Z"/>
    <path class="cls-3" d="M190.24,359.41c-1.97,5.12-5.89,9.46-9.99,14.03-4.15,4.57-8.91,9.36-13.13,15.32-1.99,2.99-3.82,6.27-5.36,9.96-.77,1.84-1.47,3.79-2.07,5.85-.62,2.06-1.11,4.23-1.37,6.53-.59,4.6-.72,9.69-.21,15.35,.72,5.65,2.18,11.85,4.4,18.61,0,0,.78-6.44,3.36-11.39,1.14-2.18,2.83-4.7,4.83-7.44,2.01-2.74,4.5-5.71,6.95-8.78,4.95-6.15,9.97-12.67,13.58-19.11,1.55,2.09,3.2,3.98,4.91,5.73,1.76,1.74,3.64,3.31,5.5,4.77,3.74,2.93,7.55,5.4,11.15,7.75,3.53,2.36,7.19,4.53,10.21,6.92,3.06,2.39,5.63,4.98,7.47,8.11,.09-5.83-.4-10.87-1.24-15.37-.64-4.55-1.73-8.53-3.18-12.1-.76-1.78-1.5-3.47-2.28-5.09-.8-1.61-1.68-3.13-2.62-4.59-1.88-2.9-4.02-5.51-6.28-7.94-4.29-4.89-9.18-9.04-13.68-13.29-4.56-4.25-8.31-8.6-10.93-13.84Z"/>
    <path class="cls-3" d="M230.19,431.7s.82,3.33,2.04,8.32c.3,1.25,.63,2.6,.98,4.03,.33,1.44,.71,2.94,1.21,4.45,.93,3.05,1.93,6.3,2.92,9.55,.88,3.29,2.26,6.37,3.31,9.36,1.13,2.95,2.05,5.76,3.05,8.07,2.04,4.59,3.4,7.65,3.4,7.65l.51-.24s-1.36-3.05-3.4-7.63c-.99-2.3-1.92-5.11-3.04-8.05-1.04-2.98-2.42-6.05-3.3-9.34-.99-3.24-1.98-6.49-2.91-9.53-.5-1.51-.88-3.01-1.21-4.44-.35-1.43-.68-2.78-.98-4.02-1.22-4.98-2.04-8.3-2.04-8.3l-.55,.13Z"/>
    <path class="cls-3" d="M162.23,445.11s.21,1.05,.59,2.89c.39,1.84,.94,4.46,1.61,7.61,.34,1.57,.7,3.28,1.09,5.08,.37,1.81,.79,3.71,1.35,5.66,1.06,3.91,2.19,8.08,3.33,12.24,1.03,4.19,2.61,8.27,3.85,12.14,1.33,3.85,2.45,7.49,3.64,10.53,2.46,6.08,4.11,10.13,4.11,10.13l.52-.2s-1.64-4.04-4.1-10.11c-1.19-3.04-2.31-6.67-3.64-10.52-1.24-3.87-2.81-7.94-3.85-12.12-1.13-4.16-2.26-8.32-3.32-12.22-.56-1.95-.98-3.84-1.35-5.65-.38-1.8-.75-3.5-1.08-5.08-1.32-6.29-2.2-10.48-2.2-10.48l-.55,.09Z"/>
    <path class="cls-3" d="M191.75,405.83c-1.91,3.62-5.01,7.49-8.36,12.12-1.64,2.31-3.49,4.83-5.03,7.57-1.56,2.74-3.06,5.73-4.37,9.03-1.27,3.29-2.51,6.91-3.15,10.84-.63,3.93-.92,8.21-.77,12.87,.04,4.67,1.06,9.63,2.48,14.98,.74,2.67,1.57,5.44,2.68,8.27,1.2,2.81,2.56,5.7,4.11,8.67l-.26,.09s1,2.83,2.5,7.08c1.65,4.2,4.06,9.74,6.4,15.3,1.11,2.8,2.53,5.49,3.79,8.03,1.27,2.54,2.46,4.91,3.48,6.94,1.02,2.03,1.88,3.72,2.47,4.9,.67,1.15,1.05,1.8,1.05,1.8l.49-.27s-.38-.65-1.05-1.8c-.6-1.18-1.45-2.87-2.47-4.89-1.02-2.03-2.2-4.39-3.47-6.93-1.26-2.54-2.67-5.22-3.78-8.02-2.33-5.55-4.74-11.08-6.39-15.27-1.5-4.24-2.5-7.07-2.5-7.07l-.26,.09s-.32-6.46,1.49-11.69c3.44-8.87,13.17-19.2,15.57-40.6,3.23,5.85,6.79,9.98,10.31,13.1,1.73,1.57,3.61,2.85,5.47,3.97,1.85,1.12,3.68,2.07,5.48,2.95,3.58,1.75,7.01,3.21,10.14,5.01,3.16,1.8,6.24,3.85,8.8,6.93l-.26,.09s.8,2.28,1.99,5.7c1.32,3.36,3.27,7.74,5.1,12.18,.86,2.25,2.01,4.35,3,6.35,1,2,1.94,3.87,2.74,5.47,.8,1.6,1.46,2.94,1.93,3.88,.53,.9,.83,1.41,.83,1.41l.49-.27s-.3-.51-.83-1.4c-.46-.93-1.13-2.27-1.92-3.87-.8-1.6-1.73-3.46-2.73-5.46-.99-2-2.14-4.09-3-6.34-1.83-4.43-3.77-8.81-5.09-12.15-1.19-3.41-1.99-5.69-1.99-5.69l-.26,.09c-.43-2.67-.96-5.17-1.58-7.52-.54-2.38-1.05-4.67-1.72-6.8-1.26-4.28-3.06-7.98-4.63-11.47-1.68-3.45-3.64-6.51-5.79-9.27-2.13-2.77-4.18-5.32-6.48-7.61-2.27-2.3-4.63-4.37-6.99-6.3-2.38-1.92-4.53-3.74-6.72-5.44-4.31-3.41-8.23-6.45-10.95-9.63Z"/>
    <path class="cls-3" d="M199.12,450.02c-.71,1.85-1.63,3.75-2.65,5.75-.96,1.99-1.98,4.09-3.04,6.3-2.08,4.46-4.28,9.54-5.56,15.55-.54,2.98-.88,6.19-.92,9.68-.02,1.74,.04,3.56,.19,5.44,.14,1.89,.37,3.84,.86,5.82,.89,3.99,2.21,8.26,4.05,12.82,.86,2.3,2.11,4.57,3.43,6.93,1.34,2.36,2.82,4.77,4.45,7.25,0,0-1.1-6.35,0-11.74,.59-3.25,2.58-7.47,4.61-12.22,2.07-4.77,4.11-10.02,5.5-15.72,7.36,4.98,13.79,6.54,19.4,8.24,1.41,.42,2.76,.85,4.11,1.31,1.39,.44,2.74,.93,4.06,1.52,2.64,1.17,5.17,2.73,7.65,5.03-.77-2.33-1.58-4.49-2.44-6.52-.85-2.03-1.81-3.89-2.58-5.76-1.64-3.67-3.47-6.86-5.45-9.67-1.01-1.39-1.97-2.73-2.9-4.02-.96-1.27-1.96-2.46-2.98-3.58-2.05-2.24-4.2-4.19-6.41-5.94-4.22-3.57-8.54-6.38-12.67-8.91-2.05-1.27-4.05-2.48-5.88-3.71-1.76-1.25-3.39-2.51-4.83-3.85Z"/>
    <path class="cls-3" d="M245.01,502.14s.25,.47,.69,1.29c.47,.8,.99,2.04,1.89,3.36,1.69,2.7,3.94,6.29,6.19,9.88,1.06,1.84,2.35,3.52,3.52,5.12,1.17,1.6,2.25,3.09,3.18,4.37,1.85,2.56,3.09,4.27,3.09,4.27l.43-.36s-1.23-1.7-3.08-4.26c-.93-1.28-2.01-2.77-3.18-4.36-1.17-1.59-2.45-3.27-3.51-5.1-2.25-3.58-4.49-7.17-6.18-9.86-.89-1.32-1.41-2.55-1.88-3.35-.44-.82-.69-1.29-.69-1.29l-.48,.29Z"/>
    <path class="cls-3" d="M199.68,525.67s.28,.59,.77,1.62c.52,1.01,1.11,2.53,2.11,4.22,1.91,3.42,4.45,7.98,6.99,12.54,1.22,2.31,2.68,4.49,4.02,6.54,1.34,2.06,2.59,3.98,3.66,5.62,2.16,3.29,3.59,5.48,3.59,5.48l.47-.3s-1.43-2.19-3.58-5.47c-1.07-1.64-2.32-3.56-3.66-5.61-1.34-2.05-2.79-4.22-4.01-6.53-2.54-4.55-5.07-9.1-6.97-12.51-.99-1.68-1.58-3.2-2.1-4.21-.49-1.03-.77-1.61-.77-1.61l-.51,.22Z"/>
    <path class="cls-3" d="M258.53,535.29c-1.87-3.75-3.76-7.05-5.71-9.97-.96-1.48-2.01-2.8-2.92-4.15-.9-1.35-1.82-2.62-2.75-3.82-3.73-4.77-7.78-8.28-11.46-11.34-3.79-2.99-7.79-5.19-11.61-7.07-3.69-1.94-7.34-3.49-10.74-5.02-1.28,3.48-2.66,7.31-3.7,11.64-.9,4.27-1.32,8.99-.95,14.37,.25,5.44,1.88,11.24,4.77,17.72,.72,1.62,1.53,3.28,2.42,4.98,.91,1.69,2.07,3.32,3.24,5.03,2.39,3.4,5.15,6.94,8.38,10.57l-.24,.15s4.64,6.24,9.29,12.48c.58,.78,1.17,1.56,1.74,2.33,.62,.73,1.23,1.45,1.83,2.14,1.19,1.38,2.3,2.67,3.26,3.78,1.91,2.21,3.19,3.69,3.19,3.69l.44-.35s-1.27-1.47-3.18-3.68c-.95-1.1-2.06-2.39-3.25-3.77-.59-.69-1.2-1.41-1.82-2.13-.57-.77-1.16-1.54-1.74-2.32-4.63-6.23-9.27-12.45-9.27-12.45l-.24,.15s-1.92-6.07-1.56-11.53c.2-2.93,1.21-6.84,1.76-11.22,.68-4.47,.85-9.37-1.05-14.28,7.09,7.18,11.66,8.4,16.42,8.9,4.65,.55,9.09,.68,15.46,5.2l-.21,.18s4.31,5.02,8.62,10.05c.54,.63,1.07,1.26,1.6,1.87,.57,.58,1.14,1.15,1.68,1.7,1.09,1.1,2.11,2.12,2.98,3,1.74,1.76,2.9,2.93,2.9,2.93l.38-.41s-1.16-1.17-2.89-2.92c-.87-.88-1.89-1.9-2.98-2.99-.54-.55-1.1-1.12-1.68-1.7-.53-.62-1.06-1.24-1.59-1.87-4.3-5.01-8.6-10.02-8.6-10.02l-.21,.18Z"/>
    <path class="cls-3" d="M231.94,530.19c-.9,4.4-.58,8.3-.03,12.02,.61,3.69,1.7,7.07,3,10.06,2.93,5.75,6.67,9.9,9.17,12.31,.67,.64,1.36,1.27,2.08,1.9,.76,.6,1.56,1.17,2.37,1.75,1.63,1.16,3.35,2.31,5.14,3.47,1.79,1.14,3.64,2.33,5.56,3.55,.97,.6,1.9,1.24,2.93,1.83,1.03,.57,2.08,1.16,3.15,1.75,4.26,2.37,8.6,5.05,13.15,8.04,4.72,2.79,9.53,6.01,14.39,9.95-4.86-3.94-9.03-7.98-12.65-11.95-3.45-4.16-6.23-8.4-8.74-12.3-.62-.98-1.22-1.95-1.82-2.9-.57-.97-1.05-1.99-1.56-2.95-.99-1.93-1.95-3.79-2.87-5.59-.93-1.78-1.83-3.47-2.74-5.07-.46-.79-.92-1.57-1.37-2.33-.41-.79-.83-1.56-1.26-2.3-1.62-2.8-4.49-6.94-9.1-10.81-2.15-2.06-4.73-4.06-7.85-5.84-3.07-1.81-6.91-3.24-10.94-4.59Z"/>
  </g>
  <path class="cls-2" d="M1047.01,49.47c-.14-7.74-1.19-10.56-5.73-17.06-3.31-4.73-11.64-10.57-17.25-11.91-5.56-1.33-12.98,.12-16.47,2.93-.58-.12-1.16-.22-1.74-.29-6.74-.78-13.56,1.58-19.15,5.45-.24-.12-.48-.23-.69-.32-2.45-1.05-5.21-1.16-7.87-.94-8.47,.68-11.24,5.31-25.05,5.31-4.52,0-7.82,1.57-9.91,3.16-4.53-1.79-9.87-1.23-14.1,1.21-4.3,2.48-7.44,6.75-8.89,11.49-.88,2.87-1.16,5.89-1.38,8.88-.08,1.08-.15,2.16-.2,3.24-.82,1.06-2.09,2.74-2.53,3.58-2.62,4.99-4.71,10.38-5.08,16-.37,5.62,1.15,11.54,4.98,15.67,4.02,4.34,10.17,6.27,16.08,6.09,3.33-.1,8.52-1.4,11.18-3.17,.73-.49,1.38-1.2,1.95-2.05,0,.07,0,.15,0,.22-.1,2.67-.18,5.45,.94,7.88,.88,1.91,2.45,3.44,4.19,4.62,4.3,2.92,9.6,3.9,14.74,4.68,10.18,1.54,20.5,2.56,30.76,1.82,10.27-.73,20.53-3.29,29.4-8.5,.99-.58,2.02-1.27,2.41-2.35,.26-.74,.18-1.55,.1-2.34-.69-6.58-1.41-21.04,2.35-25.13,4.87-2.28,8.75-5.32,12.37-10.82,3.43-5.22,4.7-11.55,4.59-17.35Zm-124.46-1.08c2.09-5.27,8.52-9.93,14.18-9.62,.99,.05,2.17,.37,3.13,.69-2.02,3.18-3.11,6.96-2.87,10.72,.3,4.71,2.76,8.72,4.76,13,.45,.95,1.15,3.25,1.83,5.45,.01,.16,.07,.33,.13,.48,.66,1.6,1.03,5.7,1.35,10.05-1.72,2.74-6.23,7.35-15.72,2.57-6.08-3.05-8.01-7.44-8.51-21.47-.12-3.22,.53-8.85,1.72-11.85Zm19.66,46.24c-5.95,4.54-11.89,4.21-15.93,3.32-5.04-1.11-9.41-4.75-11.62-9.41-2.21-4.67-2.05-14.49,2.41-22.72,.46-.86,1-1.61,1.44-2.35,0,1.61,.09,3.23,.32,4.82,.46,3.27,1.5,6.45,3.04,9.36,1.35,2.54,3.14,4.93,5.55,6.5,1.78,1.15,5.08,2.64,7.19,2.88,6.2,.71,9.22-.85,10.83-2.65,.07,.98,.15,1.93,.23,2.81,0,.03,0,.07-.01,.1l-.13-.13c-.02,.44-.03,.88-.05,1.32-.44,2.33-1.45,4.76-3.27,6.14Zm81.57,4.64c-.06,.89-.12,1.81-.51,2.61-.59,1.21-1.84,1.91-2.96,2.67-6.56,4.42-15.47,6.07-18.37,6.36-8.55,.87-17.18,1.43-25.75,.75-8.57-.68-10.64-.74-18.93-3.7-4.01-1.43-6.77-2.98-7.17-4.59-.24-.97-.14-2.44,1.58-2.44,1.57,0,13.62,4.87,22.99,1.41-16.45-1.53-20.61-3.89-22.7-4.85-1.81-.84-2.82-3.2-1.15-4.87,4.98,2.51,9.51,1.8,15.48-.03-5.84,.02-8.09-.84-12.69-2.09-1.61-.44-2.9-1.37-3.91-2.57-1.72-3.91,.37-7.95,1.97-7.78,4.48-.76,5.12,1.13,9.13,3.28,6.46,3.46,14.62,1.37,20.8-2.58,1.42-.91,2.86-1.94,4.54-2.13,2.77-.31,5.18,1.72,7.81,2.65,2.46,.87,5.25,.75,7.63-.32,1.59-.72,3.07-1.86,4.81-1.96,1.15-.06,2.27,.34,3.4,.6,2.13,.49,4.35,.43,6.54,.38,2.71-.07,5.47-.15,8.12-.63,1.49,3.05-.29,14.1-.66,19.83Zm18.79-41.96c-5.14,14.53-9.17,14.28-14.34,16.67-4.17,1.93-10.39,2.94-14.45,.8,.18-1.81,1.53-3.24,2.69-4.65,3.99-4.87,6.25-11.14,6.27-17.44-1.55,6.61-4.28,13.19-9.25,17.82-4.97,4.63-12.53,6.91-18.79,4.29-.77-.32-1.52-.73-2.06-1.36-1.28-1.51-.93-3.77-.47-5.69,1.81-7.57,4.23-15.43,2.31-22.97,.21,6.97-.89,14.12-4.2,20.25-3.32,6.14-9.04,11.17-15.86,12.65-2.35,.51-4.78,.61-7.19,.57-4.32-.07-8.69-.58-12.71-2.18-3.65-1.45-7.76-1.13-9.83-8.08-.75-4.28-1.84-9.22-2.83-11.91-1.48-4.06-2.3-8.76-.25-12.56,1.35-2.5,3.8-4.27,6.44-5.34,2.63-1.07,9.32-1.75,12.11-2.34,6.55-1.39,12.92-5.31,19.52-6,3.98-.41,10.6,2.51,13.53,7.67-.27-2.59-1.37-4.57-2.72-6.05,1.94-1.81,7.8-6.79,13.87-5.94,6.5,.91,14.41,4.07,17.38,9.92-1.44-4.62-5.04-8.27-9.43-10.39,.05-.03,.1-.05,.14-.08,6.94-5.55,17.55-1.26,23.78,5.08,6.23,6.34,9.3,18.9,6.34,27.27Z"/>
  <g>
    <path class="cls-1" d="M587.14,79.41l-7.12,34.2c10.13-1.82,17.54-15.71,17.54-26.43,0-7.42-3.61-13.27-12.43-12.38-16.24,1.64-25.97,11.74-25.97,26.98,0,5.11,1.3,5.78,1.4,6.68-6.92,.7-10.73-1.42-10.73-8.64,0-13.33,18.45-27.93,35.19-29.61,16.44-1.66,23.66,7.04,23.66,17.36,0,12.73-10.93,27.97-28.97,29.79l-.5,.05-6.12,29.19-14.44,1.46,13.63-65.13,14.84-3.5Z"/>
    <path class="cls-1" d="M654.79,88.22l-7.22,34.81c-.3,1.33-.4,2.35-.4,3.25,0,2.81,1.3,4.18,4.11,3.9,3.91-.39,6.62-5.08,8.12-10.24l4.21-.42c-5.71,16.92-14.74,20.03-20.15,20.58-5.62,.57-9.22-2.28-9.82-8.23-3.11,4.92-7.82,10.01-14.94,10.73-6.82,.69-13.33-2.87-13.33-14.8,0-13.53,8.32-35.93,25.76-37.69,5.72-.58,8.12,1.39,8.12,4.29v.7l1.1-5.42,14.44-1.46Zm-34.59,36.67c0,7.72,3.21,7.5,5.01,7.31,2.91-.29,7.12-3.73,8.32-9.66l4.81-23.14c0-1.2-.9-3.72-4.11-3.4-8.52,.86-14.03,19.46-14.03,28.88Z"/>
    <path class="cls-1" d="M711.73,62.43l-11.53,55.3c-.3,1.33-.4,2.35-.4,3.25,0,2.81,1.3,3.58,4.11,3.29,3.91-.39,6.62-4.48,8.12-9.64l4.21-.42c-5.71,16.92-14.74,19.43-20.15,19.98s-9.02-2.1-9.82-7.63c-3.01,4.91-7.72,10-14.84,10.72-6.82,.69-13.33-2.87-13.33-14.8,0-13.53,8.32-35.93,25.76-37.69,5.72-.58,8.12,1.39,8.12,4.29v.4l4.91-23.55,14.84-3.5Zm-25.56,54.81l4.91-23.45c-.2-1.18-1.1-3.4-4.11-3.09-8.52,.86-14.03,19.46-14.03,28.88,0,7.72,3.21,7.5,5.01,7.31,2.81-.28,6.92-3.5,8.22-9.15v-.5Z"/>
    <path class="cls-1" d="M760.14,77.6l-7.22,34.81c-.3,1.33-.4,2.35-.4,3.25,0,2.81,1.3,4.18,4.11,3.9,3.91-.39,6.62-5.08,8.12-10.24l4.21-.42c-5.71,16.92-14.74,20.03-20.15,20.58-5.62,.57-9.22-2.28-9.82-8.23-3.11,4.92-7.82,10.01-14.94,10.73-6.82,.69-13.33-2.87-13.33-14.8,0-13.53,8.32-35.93,25.76-37.69,5.72-.58,8.12,1.39,8.12,4.29v.7l1.1-5.42,14.44-1.46Zm-34.59,36.67c0,7.72,3.21,7.5,5.01,7.31,2.91-.29,7.12-3.73,8.32-9.66l4.81-23.14c0-1.2-.9-3.72-4.11-3.4-8.52,.86-14.03,19.46-14.03,28.88Z"/>
    <path class="cls-1" d="M785.99,74.99l-1.3,6.35c3.51-3.36,7.32-6.95,12.13-7.44,4.51-.46,6.92,3.01,6.92,6.82,0,3.51-2.31,7.55-7.22,8.05-5.61,.57-2.81-6.33-5.81-6.03s-4.81,1.99-7.32,4.55l-8.02,38.9-14.44,1.46,10.63-51.2,14.44-1.46Z"/>
    <path class="cls-1" d="M823.68,71.19l-7.22,34.81c-.3,1.33-.4,2.35-.4,3.25,0,2.81,1.3,3.58,4.11,3.29,3.91-.39,7.52-4.57,9.02-9.73l4.21-.42c-5.72,16.92-15.64,20.12-21.05,20.67-6.01,.61-10.73-2.53-10.73-10.95,0-1.91,.3-4.14,.8-6.6l6.82-32.87,14.44-1.46Zm-4.51-20.9c4.41-.44,8.02,2.8,8.02,7.21s-3.61,8.28-8.02,8.73c-4.41,.44-7.92-2.71-7.92-7.12s3.51-8.37,7.92-8.82Z"/>
    <path class="cls-1" d="M877.31,65.78l-7.22,34.81c-.3,1.33-.4,2.35-.4,3.25,0,2.81,1.3,3.58,4.11,3.29,.9-.09,1.5-.25,2.2-.62-2.71,7.29-4.61,10.59-10.02,11.14-5.41,.55-9.02-2.6-9.83-8.33-3.01,4.91-7.82,10.11-14.94,10.83-6.82,.69-13.33-2.87-13.33-14.8,0-13.53,8.32-35.93,25.76-37.69,5.72-.58,8.12,1.39,8.12,4.29v.7l1.1-5.42,14.43-1.46Zm-34.59,36.67c0,7.72,3.21,7.5,5.01,7.31,2.91-.29,7.12-3.73,8.32-9.66l4.81-23.14c0-1.2-.9-3.72-4.11-3.4-8.52,.86-14.04,19.46-14.04,28.88Z"/>
  </g>
  <path class="cls-2" d="M958.58,599.87c-8.38-.43-19.18,.59-30.41,2.86-11.23,2.27-21.57,5.54-29.13,9.19-4.73,2.29-7.99,4.52-9.89,6.79-12.3,.71-25.46-.98-30.66-13.26-1.16-2.73-3-4.53-5.33-5.36-2.54-1.41-5.56-1.97-8.63-1.35l-273.82,55.43c-6.57,1.33-10.91,7.57-9.99,14.13-1.17,11.91-12.01,18.09-22.97,21.99-2.63-1.35-6.5-2.14-11.75-2.41-8.38-.43-19.18,.59-30.41,2.86-11.23,2.27-21.57,5.54-29.13,9.19-8.92,4.32-12.66,8.43-11.74,12.94s5.95,6.85,15.85,7.36c8.38,.43,19.18-.59,30.41-2.86,11.23-2.27,21.57-5.54,29.13-9.19,4.17-2.02,7.2-3.99,9.16-5.99,12.35-1.04,24.97-.82,30.77,12.33l.27,1.35c1.38,6.83,8.06,11.25,14.88,9.87l273.82-55.43c6.83-1.38,11.25-8.06,9.87-14.88l-.05-.23c-.63-15.61,11.32-20.95,23.53-24.93,2.58,1.07,6.13,1.72,10.76,1.95,8.38,.43,19.18-.59,30.41-2.86,11.23-2.27,21.57-5.54,29.13-9.19,8.92-4.32,12.66-8.43,11.74-12.94s-5.95-6.85-15.85-7.36Zm-459.98,110.26c-23.41,4.74-38.05,6.07-38.42,1.49-.02-.19-.23-.32-.26-.51-.83-5.05,12.9-12.95,36.52-17.73,24.08-4.87,40.74-2.93,41.38,2.69-.54,5-15.14,9.19-39.22,14.06Zm63.79-15.23c-3.44,3.55-10.94,4.25-18.16,2.18-1.07-.31-1.87-1-2.37-1.81,0,0,0-.01,0-.02-.08-.38-.2-.74-.33-1.09-.09-1.71,.51-3.38,2.71-4.05,10.23-3.52,15.82-4.86,18.16-13.36l2,9.88c.14,3.27-.25,6.45-2.01,8.26Zm287.84-32.62c-67.51,13.67-183.63,37.4-251.11,51.24-8.64,1.77-22.25,3.28-26.84-9.3-3.72-10.19-8.5-33.88-8.5-33.88-.1-.49-.17-.96-.23-1.42l.2-4.8c1.03-4.18,4.32-6.11,7.24-6.7l274.3-55.94c4.1-.83,8.35,4.05,9.17,8.14,0,0,7.25,20.45,6.9,36.89-.15,7-2.48,14.01-11.13,15.76Zm35.58-34.8c-5.84,4.72-13.02,6.99-17.57,5.06-2.9-1.23-4.68-5.26-5.84-9.17l-1.64-8.09c5.59,7.51,11.28,6.54,22.34,5.79,2.29-.24,3.49,1.07,4.07,2.68,.01,.38,.04,.75,.12,1.14,0,0,0,.01,0,.02-.15,.94-.61,1.88-1.48,2.59Zm47.12-5.72c-24.08,4.87-39.15,6.7-41.6,2.3-1.59-5.42,13-13.7,37.08-18.57,23.62-4.78,39.34-2.85,40.54,2.13,.05,.19-.1,.39-.04,.57,1.44,4.36-12.57,8.83-35.97,13.57Z"/>
</svg>